<?xml version="1.0" standalone="no"?>
<!DOCTYPE svg PUBLIC "-//W3C//DTD SVG 20010904//EN"
 "http://www.w3.org/TR/2001/REC-SVG-20010904/DTD/svg10.dtd">
<svg version="1.0" xmlns="http://www.w3.org/2000/svg"
 width="800.000000pt" height="600.000000pt" viewBox="0 0 800.000000 600.000000"
 preserveAspectRatio="xMidYMid meet">

<g transform="translate(0.000000,600.000000) scale(0.100000,-0.100000)"
fill="#000000" stroke="none">
<path d="M2950 5749 c-260 -33 -482 -195 -589 -430 -55 -120 -55 -118 44 -65
l86 48 95 -18 95 -18 225 -443 c124 -244 223 -450 220 -458 -3 -8 -50 -37
-105 -65 l-101 -50 -324 0 -325 0 -50 92 c-43 80 -50 89 -55 68 -3 -14 -22
-115 -41 -225 -20 -110 -38 -208 -41 -217 -4 -15 -33 -17 -292 -20 l-287 -3
-47 -27 c-34 -21 -53 -41 -72 -80 -29 -58 -31 -79 -15 -129 18 -53 58 -99 103
-120 35 -16 67 -19 209 -19 92 0 167 -3 167 -7 -1 -5 -7 -19 -15 -33 -21 -36
-18 -136 4 -186 19 -41 94 -114 118 -114 22 0 15 -17 -10 -24 -32 -8 -87 -64
-108 -111 -25 -55 -24 -137 2 -192 24 -50 68 -87 135 -112 l47 -18 -32 -19
c-41 -24 -77 -77 -92 -136 -14 -58 0 -125 37 -179 29 -43 109 -89 154 -89 l32
0 -36 -42 c-50 -57 -70 -127 -56 -193 16 -77 22 -81 60 -45 46 43 82 60 140
67 59 7 134 -15 196 -58 24 -16 45 -29 48 -29 3 0 6 242 6 538 0 510 4 594 30
691 l11 41 860 0 859 0 -16 -25 c-36 -55 -13 -153 47 -198 47 -34 106 -34 178
3 181 91 390 91 570 1 33 -17 75 -31 93 -31 45 0 98 30 126 70 27 40 30 124 6
158 l-15 22 125 0 125 0 11 -41 c26 -97 30 -181 30 -696 0 -299 3 -543 7 -543
3 0 20 11 37 24 129 98 247 99 351 4 l54 -49 21 40 c24 48 27 132 6 183 -8 19
-29 50 -46 68 -17 18 -29 33 -28 34 106 43 158 94 179 179 20 84 -21 189 -92
231 l-32 19 47 18 c103 39 156 111 156 211 -1 81 -35 145 -103 191 l-38 26 38
20 c107 55 156 192 104 294 l-19 37 162 0 c136 0 167 3 202 19 45 21 85 67
103 120 16 50 14 71 -15 129 -19 39 -38 59 -72 80 l-47 27 -285 5 -284 5 -112
610 c-62 336 -118 628 -124 650 -22 72 -78 179 -130 248 -167 221 -457 330
-738 278 -35 -7 -234 -70 -442 -140 l-378 -128 -348 119 c-457 156 -551 177
-704 157z"/>
<path d="M2406 5024 c-3 -8 -15 -14 -26 -14 -11 0 -20 -7 -20 -15 0 -8 -9 -15
-20 -15 -13 0 -20 -7 -20 -20 0 -12 -7 -20 -17 -20 -15 0 -14 -4 6 -19 25 -19
25 -19 100 17 42 20 77 37 79 38 1 0 -2 14 -8 30 -8 23 -17 29 -40 30 -16 1
-31 -5 -34 -12z"/>
<path d="M2392 4890 c0 -14 2 -19 5 -12 2 6 2 18 0 25 -3 6 -5 1 -5 -13z"/>
<path d="M2362 4875 c0 -16 2 -22 5 -12 2 9 2 23 0 30 -3 6 -5 -1 -5 -18z"/>
<path d="M2534 4879 c15 -12 23 -25 19 -32 -4 -7 -6 -25 -4 -41 2 -25 0 -28
-21 -23 -12 3 -40 9 -60 12 -21 4 -38 11 -38 16 0 11 2 11 58 0 30 -6 42 -5
42 4 0 6 -14 11 -32 11 -18 0 -43 3 -55 7 -20 7 -23 5 -23 -17 0 -22 6 -26 58
-36 31 -6 62 -13 69 -15 7 -2 12 14 15 46 2 41 -1 54 -18 70 -11 10 -24 19
-28 19 -5 0 3 -9 18 -21z"/>
<path d="M2338 4850 c2 -16 6 -30 8 -30 2 0 4 14 4 30 0 17 -4 30 -8 30 -5 0
-7 -13 -4 -30z"/>
<path d="M2644 4835 c-5 -13 -14 -15 -40 -10 l-34 6 0 -45 0 -44 -80 17 c-72
16 -81 16 -95 2 -13 -13 -18 -14 -38 -2 -12 7 -19 10 -15 6 11 -11 -11 -47
-23 -39 -7 4 -6 -2 1 -16 9 -18 18 -21 41 -16 39 8 37 -8 -3 -22 -89 -30 -113
-41 -88 -41 14 0 34 6 44 14 28 21 46 19 41 -5 -2 -11 1 -20 6 -20 6 0 8 -4 5
-9 -4 -5 0 -11 6 -14 8 -2 1 -10 -14 -17 -37 -17 -40 -60 -4 -60 13 0 27 7 30
16 4 12 14 14 36 9 30 -6 30 -6 30 34 0 24 5 41 11 41 34 0 139 -25 139 -33 0
-5 -14 -7 -32 -3 -99 21 -98 21 -98 -12 0 -17 -3 -39 -7 -49 -6 -15 -4 -16 8
-6 10 8 14 23 11 42 l-4 29 60 -13 c59 -12 60 -12 71 11 14 32 58 33 71 2 8
-19 9 -18 4 10 -4 24 -2 34 10 38 12 5 13 10 6 25 -8 14 -17 17 -40 12 -19 -3
-30 -1 -30 6 0 6 7 11 15 11 8 0 33 7 55 16 40 16 48 34 19 42 -12 3 -12 2 0
-6 11 -8 10 -12 -7 -21 -25 -13 -45 -14 -38 -2 4 5 2 11 -3 13 -4 1 -11 13
-15 25 -6 18 -2 25 19 35 18 8 25 18 23 32 -4 26 -45 35 -54 11z m-184 -135
c0 -5 -4 -10 -10 -10 -5 0 -10 5 -10 10 0 6 5 10 10 10 6 0 10 -4 10 -10z m56
-27 c-10 -10 -19 5 -10 18 6 11 8 11 12 0 2 -7 1 -15 -2 -18z m74 -3 c0 -5 -7
-10 -15 -10 -8 0 -15 5 -15 10 0 6 7 10 15 10 8 0 15 -4 15 -10z"/>
<path d="M2262 4755 c23 -46 44 -83 46 -81 4 5 -76 166 -83 166 -3 0 14 -38
37 -85z"/>
<path d="M2758 4733 c7 -3 16 -2 19 1 4 3 -2 6 -13 5 -11 0 -14 -3 -6 -6z"/>
<path d="M2710 4694 c0 -11 84 -164 87 -160 5 5 -75 166 -82 166 -3 0 -5 -3
-5 -6z"/>
<path d="M2770 4640 c17 -33 33 -60 35 -60 3 0 -8 27 -25 60 -17 33 -33 60
-35 60 -3 0 8 -27 25 -60z"/>
<path d="M2305 4621 c-3 -5 -2 -12 3 -15 5 -3 9 1 9 9 0 17 -3 19 -12 6z"/>
<path d="M2749 4554 c11 -22 27 -47 36 -54 16 -13 8 1 -43 76 -7 11 -3 1 7
-22z"/>
<path d="M2490 4552 c0 -9 99 -23 109 -15 9 7 -7 12 -57 19 -33 4 -52 3 -52
-4z"/>
<path d="M2822 4525 c0 -16 2 -22 5 -12 2 9 2 23 0 30 -3 6 -5 -1 -5 -18z"/>
<path d="M2682 4510 c0 -19 2 -27 5 -17 2 9 2 25 0 35 -3 9 -5 1 -5 -18z"/>
<path d="M2650 4495 c0 -14 4 -25 9 -25 4 0 6 11 3 25 -2 14 -6 25 -8 25 -2 0
-4 -11 -4 -25z"/>
<path d="M2524 4488 l-19 -23 23 19 c21 18 27 26 19 26 -2 0 -12 -10 -23 -22z"/>
<path d="M2596 4487 c3 -10 9 -15 12 -12 3 3 0 11 -7 18 -10 9 -11 8 -5 -6z"/>
<path d="M2632 4475 c0 -16 2 -22 5 -12 2 9 2 23 0 30 -3 6 -5 -1 -5 -18z"/>
<path d="M2485 4466 c0 -12 15 -39 33 -60 18 -21 32 -48 32 -63 0 -20 3 -23
14 -14 7 6 21 9 30 5 10 -4 18 0 22 10 4 11 13 14 24 11 13 -4 20 1 25 15 3
11 15 20 26 20 12 0 19 7 19 19 0 11 6 21 13 24 7 3 1 9 -14 17 -23 10 -34 8
-96 -24 l-70 -35 -27 28 c-16 17 -24 34 -21 43 4 9 2 18 -2 21 -5 3 -9 -5 -8
-17z"/>
<path d="M2815 4480 c3 -5 8 -10 11 -10 2 0 4 5 4 10 0 6 -5 10 -11 10 -5 0
-7 -4 -4 -10z"/>
<path d="M2762 2943 c-52 -26 -77 -69 -77 -135 0 -65 20 -100 76 -133 33 -19
52 -20 449 -20 401 0 416 1 450 21 41 23 80 86 80 128 0 49 -36 110 -79 134
-38 22 -45 22 -452 22 -361 0 -418 -3 -447 -17z"/>
<path d="M2836 2519 c-30 -24 -34 -59 -8 -82 16 -15 45 -17 200 -17 l182 0 0
-37 c0 -76 60 -133 140 -133 80 0 140 57 140 133 l0 37 44 0 c35 0 48 5 60 22
22 31 20 45 -9 73 l-24 25 -349 0 c-338 0 -350 -1 -376 -21z"/>
<path d="M4415 2515 c-29 -28 -31 -42 -9 -73 12 -17 25 -22 60 -22 l44 0 0
-37 c0 -77 60 -133 142 -133 79 0 138 58 138 135 l0 35 183 0 c165 0 186 2
200 18 24 27 21 58 -9 81 -26 20 -38 21 -376 21 l-349 0 -24 -25z"/>
</g>
</svg>
